<svg width="42" height="60" viewBox="0 0 42 60" fill="none" xmlns="http://www.w3.org/2000/svg">
<path d="M35.2669 34.4576C33.1463 37.3661 30.9116 40.431 29.6783 43.9883H12.3271C11.0882 40.3892 8.80934 37.2789 6.65068 34.3327L6.62359 34.2957L6.62291 34.2948C6.01056 33.461 5.40699 32.6391 4.82781 31.8074L4.82675 31.8059C2.61391 28.6408 1.31719 24.7851 1.31719 20.625C1.31719 9.7893 10.1271 1 21 1C31.8725 1 40.6828 9.78893 40.6828 20.6367C40.6828 24.796 39.3866 28.6407 37.1723 31.819L37.1722 31.8192C36.593 32.6508 35.9894 33.4727 35.3771 34.3065L35.375 34.3094L35.2669 34.4576ZM29.4013 50.625C29.4013 55.2498 25.6446 59 21 59C16.3554 59 12.5987 55.2498 12.5987 50.625V49.75H29.4013V50.625ZM9.71847 23.5C11.3022 23.5 12.5987 22.2112 12.5987 20.625C12.5987 16.0002 16.3554 12.25 21 12.25C22.5838 12.25 23.8803 10.9612 23.8803 9.375C23.8803 7.78883 22.5838 6.5 21 6.5C13.1761 6.5 6.83821 12.8162 6.83821 20.625C6.83821 22.2112 8.13468 23.5 9.71847 23.5Z" stroke="#00BEE8" stroke-width="2"/>
</svg>
